<svg width="56" height="41" viewBox="0 0 56 41" fill="none" xmlns="http://www.w3.org/2000/svg">
<path d="M1 22V1H17V22H1Z" fill="#FFD550" stroke="#1C1F35" stroke-width="2"/>
<path d="M1 21.6855H38.6429" stroke="#1C1F35" stroke-width="2" stroke-linecap="round" stroke-linejoin="round"/>
<path d="M41.9643 39.399C45.633 39.399 48.6071 36.4249 48.6071 32.7561C48.6071 29.0874 45.633 26.1133 41.9643 26.1133C38.2955 26.1133 35.3214 29.0874 35.3214 32.7561C35.3214 36.4249 38.2955 39.399 41.9643 39.399Z" stroke="#1C1F35" stroke-width="2" stroke-linecap="round" stroke-linejoin="round"/>
<path d="M13.1786 39.399C16.8474 39.399 19.8215 36.4249 19.8215 32.7561C19.8215 29.0874 16.8474 26.1133 13.1786 26.1133C9.50987 26.1133 6.53577 29.0874 6.53577 32.7561C6.53577 36.4249 9.50987 39.399 13.1786 39.399Z" fill="#FFD550" stroke="#1C1F35" stroke-width="2" stroke-linecap="round" stroke-linejoin="round"/>
<path d="M35.3214 31.6494H19.8214" stroke="#1C1F35" stroke-width="2" stroke-linecap="round" stroke-linejoin="round"/>
<path d="M39 21H55V30.7778C55 31.1019 54.7893 31.4128 54.4142 31.642C54.0391 31.8712 53.5304 32 53 32H49.1429" stroke="#1C1F35" stroke-width="2" stroke-linecap="round" stroke-linejoin="round"/>
<path d="M25.3572 35.9709L28.6786 35.9709" stroke="#1C1F35" stroke-width="2" stroke-linecap="round" stroke-linejoin="round"/>
</svg>
