<svg width="74" height="56" viewBox="0 0 74 56" fill="none" xmlns="http://www.w3.org/2000/svg">
<path d="M17.438 43.3777H53.0686" stroke="#1C1F35" stroke-width="2" stroke-linecap="round" stroke-linejoin="round"/>
<path d="M34.3534 28.5188L49.772 19.2362" stroke="#1C1F35" stroke-width="2" stroke-linecap="round" stroke-linejoin="round"/>
<path d="M9.87988 25.9482L15.855 31.9233" stroke="#1C1F35" stroke-width="2" stroke-linecap="round" stroke-linejoin="round"/>
<path d="M1.24219 23.7891L7.21731 29.7642" stroke="#1C1F35" stroke-width="2" stroke-linecap="round" stroke-linejoin="round"/>
<path d="M15.9121 23.5192L25.3066 32.5309C26.5593 33.7339 28.1575 34.4905 29.8636 34.6883C31.5697 34.8861 33.2925 34.5145 34.7759 33.6286L72.5034 11.1632L67.8685 5.34264C66.6628 3.83406 64.9702 2.81701 63.0964 2.47523C61.2227 2.13345 59.2915 2.4895 57.6516 3.47904L46.5875 10.1421L31.6361 5.0363L27.5244 6.84885C27.2168 6.9839 26.9474 7.19612 26.7409 7.46594C26.5344 7.73575 26.3975 8.05448 26.3429 8.39275C26.2883 8.73101 26.3177 9.07791 26.4284 9.40148C26.539 9.72504 26.7274 10.0149 26.9762 10.2442L34.6264 17.2902L27.649 21.3748L20.6717 18.3113L16.4853 20.1494C16.1807 20.2834 15.9136 20.4932 15.708 20.7596C15.5025 21.026 15.3651 21.3408 15.3082 21.6753C15.2513 22.0099 15.2767 22.3537 15.3821 22.6757C15.4876 22.9976 15.6698 23.2875 15.9121 23.5192V23.5192Z" stroke="#1C1F35" stroke-width="2" stroke-linecap="round" stroke-linejoin="round"/>
<path d="M68.7243 6.66756C62.7344 11.3721 56.8217 11.9633 52.5286 6.66756L55.9019 4.47491C60.0938 1.75015 65.6759 2.7047 68.7243 6.66756Z" fill="#FFD550" stroke="#1C1F35" stroke-width="2"/>
</svg>
