<?xml version="1.0" encoding="UTF-8"?>
<svg id="Capa_2" data-name="Capa 2" xmlns="http://www.w3.org/2000/svg" viewBox="0 0 509.95 143.23">
  <defs>
    <style>
      .cls-1 {
        fill: #fbbf24;
      }

      .cls-1, .cls-2 {
        stroke-width: 0px;
      }

      .cls-2 {
        fill: #fff;
      }
    </style>
  </defs>
  <g id="Layer_2" data-name="Layer 2">
    <g>
      <g>
        <path class="cls-2" d="M159.4,73.28l5.11-33.12h11.46c6.03,0,9.34,3.13,9.34,9.2,0,7.41-3.82,14.45-12.65,14.45h-3.36l-1.47,9.48h-8.42ZM172.83,56.72c2.67,0,3.91-3.13,3.91-5.8,0-1.98-.78-3.13-2.58-3.13h-2.39l-1.38,8.93h2.44Z"/>
        <path class="cls-2" d="M218.75,54.83c-.83,12.33-5.93,19-16.19,19-8.24,0-12.33-4.65-11.55-15.27.83-12.19,5.93-18.95,16.1-18.95,8.14,0,12.47,4.83,11.64,15.23ZM200.03,57.73c-.46,5.61.51,8.1,3.54,8.1,3.86,0,5.7-3.86,6.16-10.4.46-5.43-.46-7.96-3.5-7.96-3.77,0-5.7,3.68-6.21,10.26Z"/>
        <path class="cls-2" d="M262.6,40.15l-10.72,33.12h-8.97l-.6-12.7c-.09-1.56-.18-3.86-.23-5.43h-.18l-1.79,5.43-4.42,12.7h-8.83l-.55-33.12h8.28l-.41,15.55-.18,5.11,1.7-5.06,5.11-15.6h7.45l.14,15.83v4.83l1.43-4.92,4.6-15.73h8.19Z"/>
        <path class="cls-2" d="M263.8,73.28l5.15-33.12h19.42l-1.2,7.68h-10.99l-.78,5.24h9.89l-1.1,7.13h-9.94l-.83,5.47h11.18l-1.2,7.59h-19.6Z"/>
        <path class="cls-2" d="M305.66,73.28l-2.3-10.21h-2.53l-1.56,10.21h-8.42l5.11-33.12h11.36c6.3,0,9.75,3.17,9.75,8.7,0,4.69-1.61,9.29-5.7,12.19l3.59,12.24h-9.29ZM304.38,56.53c2.67,0,3.96-3.22,3.96-5.66,0-2.12-.97-3.08-2.62-3.08h-2.48l-1.33,8.74h2.49Z"/>
        <path class="cls-2" d="M339.21,73.28l3.96-25.39h-7.45l1.2-7.73h23.28l-1.2,7.73h-7.45l-3.91,25.39h-8.42Z"/>
        <path class="cls-2" d="M363.54,61.32l3.27-21.16h8.47l-3.36,21.48c-.51,3.36.55,4.46,2.67,4.46s3.59-1.01,4.14-4.46l3.31-21.48h8.42l-3.31,21.53c-1.47,9.29-5.8,12.15-13.34,12.15s-11.59-3.86-10.26-12.51Z"/>
        <path class="cls-2" d="M395.01,58.74c.65-10.9,4.92-19.18,15.96-19.18,7.08,0,10.4,4.42,9.52,12.19h-8.28c.28-2.9-.28-4.37-2.3-4.37-3.36,0-5.57,3.5-6.03,10.86-.32,4.51.18,8.28,3.59,8.28,1.29,0,2.48-.32,3.45-1.01l.55-3.54h-3.68l.97-6.26h11.23l-2.21,14.31c-3.86,2.94-7.73,3.82-12.1,3.82-8.19,0-11.41-5.66-10.67-15.09Z"/>
        <path class="cls-2" d="M426.72,58.74c.65-10.9,4.92-19.18,15.96-19.18,7.08,0,10.4,4.42,9.52,12.19h-8.28c.28-2.9-.28-4.37-2.3-4.37-3.36,0-5.57,3.5-6.03,10.86-.32,4.51.18,8.28,3.59,8.28,1.29,0,2.48-.32,3.45-1.01l.55-3.54h-3.68l.97-6.26h11.23l-2.21,14.31c-3.86,2.94-7.73,3.82-12.1,3.82-8.19,0-11.41-5.66-10.67-15.09Z"/>
        <path class="cls-2" d="M456.67,73.28l5.15-33.12h19.42l-1.2,7.68h-10.99l-.78,5.24h9.89l-1.1,7.13h-9.94l-.83,5.47h11.18l-1.2,7.59h-19.6Z"/>
        <path class="cls-2" d="M498.54,73.28l-2.3-10.21h-2.53l-1.56,10.21h-8.42l5.11-33.12h11.36c6.3,0,9.75,3.17,9.75,8.7,0,4.69-1.61,9.29-5.7,12.19l3.59,12.24h-9.29ZM497.25,56.53c2.67,0,3.96-3.22,3.96-5.66,0-2.12-.97-3.08-2.62-3.08h-2.48l-1.33,8.74h2.49Z"/>
      </g>
      <g>
        <path class="cls-1" d="M169.12,99.84l.72-8.06h-.04l-3.21,8.06h-3.05l-.76-8.06h-.04l-1.8,8.06h-3.71l3.51-15.6h4.36l.8,10.23h.07l3.94-10.23h4.31l-1.43,15.6h-3.66Z"/>
        <path class="cls-1" d="M184.38,99.84l-.22-2.47h-3.62l-1.02,2.47h-4.12l6.83-15.6h4.51l1.91,15.6h-4.27ZM183.9,92.24c-.06-1.15-.09-2.67-.11-3.99-.43,1.32-.95,2.86-1.37,3.99l-.74,1.91h2.32l-.11-1.91Z"/>
        <path class="cls-1" d="M192.92,99.84l1.86-11.96h-3.51l.56-3.64h10.96l-.56,3.64h-3.51l-1.84,11.96h-3.97Z"/>
        <path class="cls-1" d="M203.61,99.84l2.43-15.6h9.14l-.56,3.62h-5.18l-.37,2.47h4.66l-.52,3.36h-4.68l-.39,2.58h5.27l-.56,3.58h-9.23Z"/>
        <path class="cls-1" d="M223.33,99.84l-1.08-4.81h-1.19l-.74,4.81h-3.97l2.41-15.6h5.35c2.97,0,4.59,1.5,4.59,4.1,0,2.21-.76,4.38-2.69,5.74l1.69,5.76h-4.38ZM222.72,91.96c1.26,0,1.86-1.52,1.86-2.67,0-1-.45-1.45-1.24-1.45h-1.17l-.63,4.12h1.17Z"/>
        <path class="cls-1" d="M230.87,99.84l2.43-15.6h3.97l-2.43,15.6h-3.97Z"/>
        <path class="cls-1" d="M246.76,99.84l-.22-2.47h-3.62l-1.02,2.47h-4.12l6.83-15.6h4.51l1.91,15.6h-4.27ZM246.28,92.24c-.06-1.15-.09-2.67-.11-3.99-.43,1.32-.95,2.86-1.37,3.99l-.74,1.91h2.32l-.11-1.91Z"/>
        <path class="cls-1" d="M253.98,99.84l2.43-15.6h3.97l-1.86,12.03h4.98l-.56,3.58h-8.95Z"/>
        <path class="cls-1" d="M278.97,99.84l.91-5.83h-3.38l-.91,5.83h-3.97l2.43-15.6h3.97l-.93,6.09h3.36l.95-6.09h3.97l-2.43,15.6h-3.97Z"/>
        <path class="cls-1" d="M294.85,99.84l-.22-2.47h-3.62l-1.02,2.47h-4.12l6.83-15.6h4.51l1.91,15.6h-4.27ZM294.38,92.24c-.07-1.15-.09-2.67-.11-3.99-.43,1.32-.95,2.86-1.37,3.99l-.74,1.91h2.32l-.11-1.91Z"/>
        <path class="cls-1" d="M310.02,99.84l-1.78-4.59c-.43-1.08-.78-1.99-1.13-3.03h-.04l-1.19,7.63h-3.81l2.43-15.6h3.32l1.97,5.24c.37,1,.67,1.82.98,2.82h.04l1.26-8.06h3.79l-2.41,15.6h-3.42Z"/>
        <path class="cls-1" d="M317.31,99.84l2.41-15.6h5.29c3.73,0,5.33,2.15,5.33,5.66,0,.72-.04,1.43-.15,2.23-.59,5.24-2.99,7.71-8.02,7.71h-4.85ZM322.96,96.29c1.71,0,2.71-1.69,3.03-4.25.09-.61.13-1.17.13-1.69,0-1.69-.59-2.6-1.86-2.6h-1.11l-1.32,8.54h1.13Z"/>
        <path class="cls-1" d="M332.52,99.84l2.43-15.6h3.97l-1.86,12.03h4.98l-.56,3.58h-8.95Z"/>
        <path class="cls-1" d="M344.79,99.84l2.43-15.6h3.97l-2.43,15.6h-3.97Z"/>
        <path class="cls-1" d="M360.57,99.84l-1.78-4.59c-.43-1.08-.78-1.99-1.13-3.03h-.04l-1.19,7.63h-3.81l2.43-15.6h3.32l1.97,5.24c.37,1,.67,1.82.98,2.82h.04l1.26-8.06h3.79l-2.41,15.6h-3.42Z"/>
        <path class="cls-1" d="M368.67,93c.3-5.14,2.32-9.04,7.52-9.04,3.34,0,4.9,2.08,4.49,5.74h-3.9c.13-1.37-.13-2.06-1.08-2.06-1.58,0-2.62,1.65-2.84,5.11-.15,2.12.09,3.9,1.69,3.9.61,0,1.17-.15,1.62-.48l.26-1.67h-1.73l.46-2.95h5.29l-1.04,6.74c-1.82,1.39-3.64,1.8-5.7,1.8-3.86,0-5.37-2.67-5.03-7.11Z"/>
        <path class="cls-1" d="M387.7,98.22l1.99-2.97c.82.63,2.15,1.21,3.08,1.21s1.43-.41,1.43-1.17c-.02-.69-.67-1.13-1.95-1.89-1.56-.93-2.67-2.14-2.67-4.16,0-3.36,2.38-5.31,5.66-5.31,1.86,0,3.58.72,4.64,1.71l-1.91,2.77c-.72-.56-1.65-1-2.51-1-.65,0-1.37.28-1.37,1.11,0,.63.45,1.11,1.58,1.84,1.52.78,2.9,1.91,2.9,4.07,0,3.42-2.32,5.68-5.72,5.68-1.99,0-3.81-.78-5.16-1.91Z"/>
        <path class="cls-1" d="M415.16,91.16c-.39,5.81-2.8,8.95-7.63,8.95-3.88,0-5.81-2.19-5.44-7.19.39-5.74,2.8-8.93,7.58-8.93,3.84,0,5.87,2.28,5.48,7.17ZM406.34,92.52c-.22,2.64.24,3.81,1.67,3.81,1.82,0,2.69-1.82,2.9-4.9.22-2.56-.22-3.75-1.65-3.75-1.78,0-2.69,1.73-2.93,4.83Z"/>
        <path class="cls-1" d="M417.44,99.84l2.43-15.6h3.97l-1.86,12.03h4.98l-.56,3.58h-8.95Z"/>
        <path class="cls-1" d="M430.19,94.21l1.54-9.97h3.99l-1.58,10.12c-.24,1.58.26,2.1,1.26,2.1s1.69-.48,1.95-2.1l1.56-10.12h3.97l-1.56,10.14c-.69,4.38-2.73,5.72-6.28,5.72s-5.46-1.82-4.83-5.89Z"/>
        <path class="cls-1" d="M447.07,99.84l1.86-11.96h-3.51l.56-3.64h10.96l-.56,3.64h-3.51l-1.84,11.96h-3.97Z"/>
        <path class="cls-1" d="M457.75,99.84l2.43-15.6h3.97l-2.43,15.6h-3.97Z"/>
        <path class="cls-1" d="M479.49,91.16c-.39,5.81-2.8,8.95-7.63,8.95-3.88,0-5.81-2.19-5.44-7.19.39-5.74,2.8-8.93,7.58-8.93,3.84,0,5.87,2.28,5.48,7.17ZM470.67,92.52c-.22,2.64.24,3.81,1.67,3.81,1.82,0,2.69-1.82,2.9-4.9.22-2.56-.22-3.75-1.65-3.75-1.78,0-2.69,1.73-2.93,4.83Z"/>
        <path class="cls-1" d="M489.72,99.84l-1.78-4.59c-.43-1.08-.78-1.99-1.13-3.03h-.04l-1.19,7.63h-3.81l2.43-15.6h3.32l1.97,5.24c.37,1,.67,1.82.98,2.82h.04l1.26-8.06h3.79l-2.41,15.6h-3.42Z"/>
        <path class="cls-1" d="M496.55,98.22l1.99-2.97c.82.63,2.15,1.21,3.08,1.21s1.43-.41,1.43-1.17c-.02-.69-.67-1.13-1.95-1.89-1.56-.93-2.67-2.14-2.67-4.16,0-3.36,2.38-5.31,5.66-5.31,1.86,0,3.58.72,4.64,1.71l-1.91,2.77c-.72-.56-1.65-1-2.51-1-.65,0-1.37.28-1.37,1.11,0,.63.45,1.11,1.58,1.84,1.52.78,2.9,1.91,2.9,4.07,0,3.42-2.32,5.68-5.72,5.68-1.99,0-3.81-.78-5.16-1.91Z"/>
      </g>
      <path class="cls-2" d="M58.7,33.26h-23.38L7.35,120.36l-7.35,22.87h36.08l7.35-22.87h-6.29c-3.17,0-5.42-3.09-4.45-6.1l26.02-81Z"/>
      <path class="cls-2" d="M125.05,11.92l-10.07,16.41-2.19,3.69c4.51,4.01,7.95,9.18,9.87,15.03,1.11,3.37,1.71,6.97,1.71,10.71,0,1-.05,1.99-.14,2.97-1.16,12.67-9.61,23.26-21.12,27.5l-19.44,25.3h8.24c30.8,0,55.78-24.97,55.78-55.78h0c0-18.68-8.88-35.29-22.64-45.85Z"/>
      <path class="cls-1" d="M104.68,26.65l1.98-3.34,10.21-16.63c-8.05-4.26-17.21-6.68-26.95-6.68H25.9l-7.35,22.87h56.19l-.15.44-18.57,56.1h18.71l-18.71,54.18,59-76.81h-28.24s17.89-30.12,17.89-30.12Z"/>
    </g>
  </g>
</svg>