<svg width="52" height="52" viewBox="0 0 52 52" fill="none" xmlns="http://www.w3.org/2000/svg">
<path d="M4.83325 41.7498V14.9165" stroke="black" stroke-width="2" stroke-linecap="round" stroke-linejoin="round"/>
<path d="M43.1666 14.9165V41.7498" stroke="black" stroke-width="2" stroke-linecap="round" stroke-linejoin="round"/>
<path d="M16.3334 28.3334V32.1668" stroke="black" stroke-width="2" stroke-linecap="round" stroke-linejoin="round"/>
<path d="M24 26.4167V32.1667" stroke="black" stroke-width="2" stroke-linecap="round" stroke-linejoin="round"/>
<path d="M31.6666 24.4999V32.1666" stroke="black" stroke-width="2" stroke-linecap="round" stroke-linejoin="round"/>
<path d="M45.0833 7.25H2.91666C1.85812 7.25 1 8.10812 1 9.16666V13C1 14.0585 1.85812 14.9167 2.91666 14.9167H45.0833C46.1418 14.9167 46.9999 14.0585 46.9999 13V9.16666C46.9999 8.10812 46.1418 7.25 45.0833 7.25Z" stroke="black" stroke-width="2" stroke-linecap="round" stroke-linejoin="round"/>
<path d="M45.0833 7.25H2.91666C1.85812 7.25 1 8.10812 1 9.16666V13C1 14.0585 1.85812 14.9167 2.91666 14.9167H45.0833C46.1418 14.9167 46.9999 14.0585 46.9999 13V9.16666C46.9999 8.10812 46.1418 7.25 45.0833 7.25Z" fill="#FFD550" stroke="black" stroke-width="2" stroke-linecap="round" stroke-linejoin="round"/>
<path d="M0.999878 1H21.9999" stroke="#1C1F35" stroke-width="2" stroke-linecap="round" stroke-linejoin="round"/>
<path d="M50.9999 18L50.9999 28" stroke="#1C1F35" stroke-width="2" stroke-linecap="round" stroke-linejoin="round"/>
<path d="M1 41.7499H46.9999" stroke="black" stroke-width="2" stroke-linecap="round" stroke-linejoin="round"/>
<path d="M38.5 51C40.9853 51 43 48.9853 43 46.5C43 44.0147 40.9853 42 38.5 42C36.0147 42 34 44.0147 34 46.5C34 48.9853 36.0147 51 38.5 51Z" stroke="#1C1F35" stroke-width="2" stroke-linecap="round" stroke-linejoin="round"/>
<path d="M9.5 51C11.9853 51 14 48.9853 14 46.5C14 44.0147 11.9853 42 9.5 42C7.01472 42 5 44.0147 5 46.5C5 48.9853 7.01472 51 9.5 51Z" fill="#FFD550" stroke="#1C1F35" stroke-width="2" stroke-linecap="round" stroke-linejoin="round"/>
</svg>
