<svg width="56" height="42" viewBox="0 0 56 42" fill="none" xmlns="http://www.w3.org/2000/svg">
<path d="M39 23V2H55V23H39Z" fill="#FFD550" stroke="#1C1F35" stroke-width="2"/>
<path d="M1.4325 22.6855H39.0754" stroke="#1C1F35" stroke-width="2" stroke-linecap="round" stroke-linejoin="round"/>
<path d="M42.3968 40.399C46.0655 40.399 49.0396 37.4249 49.0396 33.7561C49.0396 30.0874 46.0655 27.1133 42.3968 27.1133C38.728 27.1133 35.7539 30.0874 35.7539 33.7561C35.7539 37.4249 38.728 40.399 42.3968 40.399Z" stroke="#1C1F35" stroke-width="2" stroke-linecap="round" stroke-linejoin="round"/>
<path d="M13.6111 40.399C17.2799 40.399 20.254 37.4249 20.254 33.7561C20.254 30.0874 17.2799 27.1133 13.6111 27.1133C9.94237 27.1133 6.96826 30.0874 6.96826 33.7561C6.96826 37.4249 9.94237 40.399 13.6111 40.399Z" fill="#FFD550" stroke="#1C1F35" stroke-width="2" stroke-linecap="round" stroke-linejoin="round"/>
<path d="M35.7539 32.6494H20.2539" stroke="#1C1F35" stroke-width="2" stroke-linecap="round" stroke-linejoin="round"/>
<path d="M6.91285 32.6494H3.31464C2.81546 32.6494 2.33673 32.4453 1.98376 32.0819C1.63079 31.7186 1.4325 31.2258 1.4325 30.7119V3.58691C1.4325 3.07306 1.63079 2.58025 1.98376 2.2169C2.33673 1.85354 2.81546 1.64941 3.31464 1.64941H39.0754V27.6119" stroke="#1C1F35" stroke-width="2" stroke-linecap="round" stroke-linejoin="round"/>
<path d="M39 23H55V31.8889C55 32.1836 54.7893 32.4662 54.4142 32.6746C54.0391 32.8829 53.5304 33 53 33H49.1429" stroke="#1C1F35" stroke-width="2" stroke-linecap="round" stroke-linejoin="round"/>
<path d="M5.86108 15.3512L5.86108 6.078" stroke="#1C1F35" stroke-width="2" stroke-linecap="round" stroke-linejoin="round"/>
<path d="M25.7897 18.2568L35.0629 18.2568" stroke="#1C1F35" stroke-width="2" stroke-linecap="round" stroke-linejoin="round"/>
<path d="M25.7897 36.9709L29.1111 36.9709" stroke="#1C1F35" stroke-width="2" stroke-linecap="round" stroke-linejoin="round"/>
</svg>
