<svg width="49" height="51" viewBox="0 0 49 51" fill="none" xmlns="http://www.w3.org/2000/svg">
<path d="M25.5117 39.7376C27.1618 40.8665 29.0278 41.6381 30.9909 42.0033C32.954 42.3685 34.9713 42.3194 36.9145 41.8591C38.8577 41.3987 40.6843 40.5373 42.278 39.3294C43.8717 38.1216 45.1977 36.5939 46.1717 34.8434C47.1457 33.0929 47.7463 31.158 47.9353 29.1617C48.1244 27.1655 47.8978 25.1515 47.2698 23.248C46.6419 21.3445 45.6264 19.593 44.288 18.1051C42.9496 16.6171 41.3175 15.4252 39.4955 14.6052C39.0955 14.4032 38.7776 14.068 38.5962 13.6568C37.4307 10.868 35.4711 8.48702 32.9634 6.81263C30.4556 5.13823 27.5113 4.245 24.5 4.245C21.4887 4.245 18.5444 5.13823 16.0366 6.81263C13.5289 8.48702 11.5693 10.868 10.4038 13.6568C10.2224 14.068 9.90453 14.4032 9.50447 14.6052C7.68253 15.4252 6.05045 16.6171 4.71202 18.1051C3.37359 19.593 2.35812 21.3445 1.73018 23.248C1.10225 25.1515 0.875601 27.1655 1.06465 29.1617C1.25371 31.158 1.85432 33.0929 2.8283 34.8434C3.80227 36.5939 5.12829 38.1216 6.72202 39.3294C8.31574 40.5373 10.1423 41.3987 12.0855 41.8591C14.0287 42.3194 16.046 42.3685 18.0091 42.0033C19.9722 41.6381 21.8382 40.8665 23.4883 39.7376C23.7888 39.5395 24.1405 39.4339 24.5 39.4339C24.8595 39.4339 25.2112 39.5395 25.5117 39.7376Z" fill="#FFD550" stroke="#1C1F35" stroke-width="2" stroke-linecap="round" stroke-linejoin="round"/>
<path d="M42.5531 29.8875C41.4126 32.7357 38.6089 37.5018 30.9353 37.5018" stroke="#1C1F35" stroke-width="2" stroke-linecap="round" stroke-linejoin="round"/>
<path d="M6.88068 10.7234C8.1832 7.74886 11.2224 3.49948 17.8402 1.96863" stroke="#1C1F35" stroke-width="2" stroke-linecap="round" stroke-linejoin="round"/>
<path d="M24.8622 49.9113V18.7147" stroke="#1C1F35" stroke-width="2" stroke-linecap="round" stroke-linejoin="round"/>
<path d="M24.8626 32.5802L14.2377 27.3807" stroke="#1C1F35" stroke-width="2" stroke-linecap="round" stroke-linejoin="round"/>
<path d="M15.1229 24.3588L18.587 26.3163" stroke="white" stroke-linecap="round" stroke-linejoin="round"/>
<path d="M21.7745 18.4267L21.7745 22.3417" stroke="#1C1F35" stroke-linecap="round" stroke-linejoin="round"/>
<path d="M27.5652 43.245L27.5652 48.245" stroke="#1C1F35" stroke-width="1.5" stroke-linecap="round" stroke-linejoin="round"/>
<path d="M24.8622 27.3809L35.4871 22.1815" stroke="#1C1F35" stroke-width="2" stroke-linecap="round" stroke-linejoin="round"/>
</svg>
