<svg width="50" height="56" viewBox="0 0 50 56" fill="none" xmlns="http://www.w3.org/2000/svg">
<path d="M3.95862 18.512L25.0388 30.3464L24.669 53.2758L3.95862 41.4413V18.512Z" fill="#FFD550"/>
<path d="M25.4087 4.82849L46.8587 17.0328L37.2432 22.2104L15.4233 10.3759L25.4087 4.82849Z" fill="#FFD550"/>
<path d="M48.2492 41.2107V18.0031C48.2474 17.6678 48.1572 17.339 47.9878 17.0497C47.8183 16.7605 47.5756 16.521 47.2841 16.3555L26.5715 4.70458C26.2924 4.54345 25.9758 4.45862 25.6535 4.45862C25.3312 4.45862 25.0147 4.54345 24.7356 4.70458L4.02288 16.3555C3.73138 16.521 3.48867 16.7605 3.31925 17.0497C3.14982 17.339 3.05966 17.6678 3.05786 18.0031V41.2107C3.05966 41.5459 3.14982 41.8747 3.31925 42.164C3.48867 42.4533 3.73138 42.6927 4.02288 42.8583L24.7356 54.5092C25.0147 54.6703 25.3312 54.7551 25.6535 54.7551C25.9758 54.7551 26.2924 54.6703 26.5715 54.5092L47.2841 42.8583C47.5756 42.6927 47.8183 42.4533 47.9878 42.164C48.1572 41.8747 48.2474 41.5459 48.2492 41.2107V41.2107Z" stroke="#1C1F35" stroke-width="2" stroke-linecap="round" stroke-linejoin="round"/>
<path d="M37.1867 35.3734V23.1341L14.3557 10.5417" stroke="#1C1F35" stroke-width="2" stroke-linecap="round" stroke-linejoin="round"/>
<path d="M47.9904 17.0381L25.8655 29.6069L3.31689 17.0381" stroke="#1C1F35" stroke-width="2" stroke-linecap="round" stroke-linejoin="round"/>
<path d="M25.8658 29.6069L25.6539 54.7446" stroke="#1C1F35" stroke-width="2" stroke-linecap="round" stroke-linejoin="round"/>
<path d="M1.00001 13.5697L11.6351 7.41711" stroke="#1C1F35" stroke-width="2" stroke-linecap="round" stroke-linejoin="round"/>
<path d="M29.8465 1.50001L40.4871 7.64331" stroke="#1C1F35" stroke-width="2" stroke-linecap="round" stroke-linejoin="round"/>
<path d="M40.4872 42.1809L29.8467 48.3242" stroke="#1C1F35" stroke-width="2" stroke-linecap="round" stroke-linejoin="round"/>
</svg>
